<svg xmlns="http://www.w3.org/2000/svg" width="32" height="32.8" viewBox="0 0 32 32.8">
    <defs>
        <style>
            .prefix__cls-2{fill:#fff}
        </style>
    </defs>
    <g id="prefix__ASN" opacity="0.4" transform="translate(-56 -58)">
        <path id="prefix__Path_583" d="M172.983 375v6.32h-6.05a.56.56 0 0 0 0 1.12h13.6a.56.56 0 1 0 0-1.12H174.1V375z" class="prefix__cls-2" data-name="Path 583" transform="translate(-101.543 -291.64)"/>
        <path id="prefix__Path_584" d="M260.48 153.92a.555.555 0 0 1-.838.482l-1.513-.894-1.469.89a.532.532 0 0 1-.55.009.546.546 0 0 1-.27-.488V150H252v7.68h12.32V150h-3.84z" class="prefix__cls-2" data-name="Path 584" transform="translate(-180.32 -84.64)"/>
        <path id="prefix__Path_585" d="M315.446 152.374l.954.565V150H314v2.926l.888-.549a.53.53 0 0 1 .558 0z" class="prefix__cls-2" data-name="Path 585" transform="translate(-237.36 -84.64)"/>
        <path id="prefix__Path_586" d="M88 309.259V307H56v2.259a2.639 2.639 0 0 0 2.654 2.621h26.692A2.639 2.639 0 0 0 88 309.259z" class="prefix__cls-2" data-name="Path 586" transform="translate(0 -229.08)"/>
        <path id="prefix__Path_587" d="M88 60.64A2.655 2.655 0 0 0 85.346 58H58.654A2.655 2.655 0 0 0 56 60.64V76.8h32zM62.88 75.12H58.4a.56.56 0 0 1 0-1.12h4.48a.56.56 0 1 1 0 1.12zm2.32-2.4h-6.8a.56.56 0 0 1 0-1.12h6.8a.56.56 0 0 1 0 1.12zm-2.945-2.078a4.415 4.415 0 1 1 4.415-4.415 4.414 4.414 0 0 1-4.415 4.415zM86.4 64.774a.6.6 0 0 1-.581.586h-.7v8.212a.606.606 0 0 1-.584.588H71.121a.586.586 0 0 1-.561-.588V65.36h-.741a.565.565 0 0 1-.539-.586v-3.322a.553.553 0 0 1 .539-.572h16a.589.589 0 0 1 .581.572z" class="prefix__cls-2" data-name="Path 587"/>
        <path id="prefix__Path_588" d="M96.294 119.666a3.277 3.277 0 1 0 2.335.96 3.295 3.295 0 0 0-2.335-.96zm1.893 2.853l-2.154 1.753a.56.56 0 0 1-.779-.071l-.925-1.083a.56.56 0 1 1 .852-.727l.57.668 1.73-1.408a.56.56 0 0 1 .707.869z" class="prefix__cls-2" data-name="Path 588" transform="translate(-34.039 -56.733)"/>
        <path id="prefix__Rectangle_720" d="M0 0H14V1H0z" class="prefix__cls-2" data-name="Rectangle 720" transform="translate(71 62.4)"/>
    </g>
</svg>
