<svg xmlns="http://www.w3.org/2000/svg" width="29.593" height="43.999" viewBox="0 0 29.593 43.999">
    <path id="prefix__bill" fill="#fff" d="M3.325 45.1a.707.707 0 0 1 .443.155L7.2 48l3.434-2.747a.708.708 0 0 1 .886 0L14.954 48l3.434-2.747a.708.708 0 0 1 .886 0L22.707 48l3.433-2.747a.708.708 0 0 1 .886 0l2.724 2.179V4H.156v43.432l2.725-2.18a.709.709 0 0 1 .444-.152zm19.218-3.67h-3.877a.709.709 0 0 1 0-1.418h3.877a.709.709 0 1 1 0 1.418zm3.89 0h-1.35a.709.709 0 1 1 0-1.418h1.35a.709.709 0 0 1 0 1.418zM11.42 10.4h15.013a.709.709 0 1 1 0 1.418H11.42a.709.709 0 0 1 0-1.418zm0 5.907h15.013a.709.709 0 1 1 0 1.418H11.42a.709.709 0 0 1 0-1.418zm0 5.907h15.013a.709.709 0 1 1 0 1.418H11.42a.709.709 0 1 1 0-1.418zm0 5.907h15.013a.709.709 0 1 1 0 1.418H11.42a.709.709 0 0 1 0-1.418zm-.522 11.9h5.257a.709.709 0 1 1 0 1.418H10.9a.709.709 0 0 1 0-1.418zM6.515 10.4H8.61a.709.709 0 0 1 0 1.418H6.515a.709.709 0 1 1 0-1.418zm0 5.907H8.61a.709.709 0 0 1 0 1.418H6.515a.709.709 0 0 1 0-1.418zm0 5.907H8.61a.709.709 0 1 1 0 1.418H6.515a.709.709 0 1 1 0-1.418zm0 5.907H8.61a.709.709 0 0 1 0 1.418H6.515a.709.709 0 0 1 0-1.418zM3.472 10.4h.277a.709.709 0 0 1 0 1.418h-.277a.709.709 0 1 1 0-1.418zm0 5.907h.277a.709.709 0 0 1 0 1.418h-.277a.709.709 0 0 1 0-1.418zm0 5.907h.277a.709.709 0 1 1 0 1.418h-.277a.709.709 0 1 1 0-1.418zm0 5.907h.277a.709.709 0 0 1 0 1.418h-.277a.709.709 0 0 1 0-1.418zm1.761 11.371a2.469 2.469 0 0 1-.709-4.835v-.364a.709.709 0 1 1 1.418 0v.364A2.473 2.473 0 0 1 7.7 37.022a.709.709 0 1 1-1.418 0 1.052 1.052 0 1 0-1.052 1.053 2.469 2.469 0 0 1 .709 4.835v.444a.709.709 0 1 1-1.418 0v-.444a2.473 2.473 0 0 1-1.761-2.365.709.709 0 1 1 1.418 0A1.053 1.053 0 0 0 5.22 41.6h.025a1.052 1.052 0 1 0-.012-2.1zm0 0" transform="translate(-.156 -4)"/>
</svg>
