<svg xmlns="http://www.w3.org/2000/svg" width="40.363" height="37.842" viewBox="0 0 40.363 37.842">
    <defs>
        <style>
            .prefix__cls-2{fill:#388e3c}
        </style>
    </defs>
    <g id="prefix__excel" transform="translate(0 -15.989)">
        <path id="prefix__Path_671" fill="#eceff1" d="M274.92 107.761h-17.659A1.262 1.262 0 0 1 256 106.5V81.272a1.262 1.262 0 0 1 1.261-1.261h17.659a1.262 1.262 0 0 1 1.261 1.261V106.5a1.262 1.262 0 0 1-1.261 1.261z" data-name="Path 671" transform="translate(-235.818 -58.974)"/>
        <g id="prefix__Group_1209" data-name="Group 1209" transform="translate(20.182 26.082)">
            <path id="prefix__Path_672" d="M262.307 146.534h-5.045a1.261 1.261 0 0 1 0-2.523h5.045a1.261 1.261 0 0 1 0 2.523z" class="prefix__cls-2" data-name="Path 672" transform="translate(-256 -144.011)"/>
            <path id="prefix__Path_673" d="M262.307 210.534h-5.045a1.261 1.261 0 0 1 0-2.523h5.045a1.261 1.261 0 0 1 0 2.523z" class="prefix__cls-2" data-name="Path 673" transform="translate(-256 -202.966)"/>
            <path id="prefix__Path_674" d="M262.307 274.534h-5.045a1.261 1.261 0 0 1 0-2.523h5.045a1.261 1.261 0 0 1 0 2.523z" class="prefix__cls-2" data-name="Path 674" transform="translate(-256 -261.92)"/>
            <path id="prefix__Path_675" d="M262.307 338.534h-5.045a1.261 1.261 0 0 1 0-2.523h5.045a1.261 1.261 0 0 1 0 2.523z" class="prefix__cls-2" data-name="Path 675" transform="translate(-256 -320.875)"/>
            <path id="prefix__Path_676" d="M387.784 146.534h-2.523a1.261 1.261 0 0 1 0-2.523h2.523a1.261 1.261 0 0 1 0 2.523z" class="prefix__cls-2" data-name="Path 676" transform="translate(-373.909 -144.011)"/>
            <path id="prefix__Path_677" d="M387.784 210.534h-2.523a1.261 1.261 0 0 1 0-2.523h2.523a1.261 1.261 0 0 1 0 2.523z" class="prefix__cls-2" data-name="Path 677" transform="translate(-373.909 -202.966)"/>
            <path id="prefix__Path_678" d="M387.784 274.534h-2.523a1.261 1.261 0 0 1 0-2.523h2.523a1.261 1.261 0 0 1 0 2.523z" class="prefix__cls-2" data-name="Path 678" transform="translate(-373.909 -261.92)"/>
            <path id="prefix__Path_679" d="M387.784 338.534h-2.523a1.261 1.261 0 0 1 0-2.523h2.523a1.261 1.261 0 0 1 0 2.523z" class="prefix__cls-2" data-name="Path 679" transform="translate(-373.909 -320.875)"/>
        </g>
        <path id="prefix__Path_680" fill="#2e7d32" d="M22.248 16.281a1.239 1.239 0 0 0-1.037-.267L1.029 19.8A1.258 1.258 0 0 0 0 21.037v27.75a1.26 1.26 0 0 0 1.029 1.239l20.182 3.784a1.187 1.187 0 0 0 .232.023A1.261 1.261 0 0 0 22.7 52.57V17.252a1.258 1.258 0 0 0-.452-.971z" data-name="Path 680"/>
        <path id="prefix__Path_681" fill="#fafafa" d="M91.024 171.809l-3.988-4.559 4.034-5.187a1.262 1.262 0 0 0-1.99-1.551l-3.736 4.8-3.148-3.6a1.26 1.26 0 0 0-1.9 1.66l3.469 3.966-3.517 4.521a1.262 1.262 0 0 0 1.993 1.549l3.216-4.137 3.668 4.19a1.26 1.26 0 1 0 1.9-1.657z" data-name="Path 681" transform="translate(-73.678 -132.682)"/>
    </g>
</svg>
