<svg xmlns="http://www.w3.org/2000/svg" width="40.428" height="40.859" viewBox="0 0 40.428 40.859">
    <path id="prefix__lookup" fill="#fff" d="M37.917 40.859a2.2 2.2 0 0 1-1.567-.651l-8.25-8.293a.6.6 0 0 1 0-.848l.871-.876-2.091-2.1a15.924 15.924 0 0 1-22.191-.416 16.121 16.121 0 0 1 0-22.748A15.978 15.978 0 0 1 30.92 9.756a16.125 16.125 0 0 1-3.193 17.484l2.091 2.1.871-.876a.594.594 0 0 1 .844 0l8.247 8.292a2.239 2.239 0 0 1 0 3.151l-.3.3a2.2 2.2 0 0 1-1.563.652zM9.037 6.916a1.738 1.738 0 0 0-1.721 1.746v16.283a1.74 1.74 0 0 0 .5 1.224 1.7 1.7 0 0 0 1.212.5H23.52a1.7 1.7 0 0 0 1.212-.5 1.741 1.741 0 0 0 .5-1.224V8.662a1.738 1.738 0 0 0-1.721-1.746h-1.053V7.9a.367.367 0 1 1-.733 0v-.984h-10.9V7.9a.367.367 0 1 1-.734 0v-.984zm13.054-2.382a.368.368 0 0 0-.367.369v2.013h.733V4.9a.368.368 0 0 0-.366-.366zm-11.631 0a.368.368 0 0 0-.367.369v2.013h.734V4.9a.368.368 0 0 0-.367-.366zm.678 19.24a.363.363 0 0 1-.259-.108l-1.252-1.258a.37.37 0 0 1 0-.522.366.366 0 0 1 .519 0l1 1 2.042-1.964a.365.365 0 0 1 .519.012.37.37 0 0 1-.012.522l-2.3 2.213a.364.364 0 0 1-.257.106zm11.528-1.107H16.64a.369.369 0 0 1 0-.738h6.025a.369.369 0 0 1 0 .738zm-11.528-4.161a.363.363 0 0 1-.259-.108L9.627 17.14a.37.37 0 0 1 0-.522.366.366 0 0 1 .519 0l1 1 2.042-1.964a.365.365 0 0 1 .519.012.37.37 0 0 1-.012.521l-2.3 2.213a.364.364 0 0 1-.257.106zM22.665 17.4H16.64a.369.369 0 0 1 0-.738h6.025a.369.369 0 0 1 0 .738zm-11.527-4.162a.364.364 0 0 1-.259-.108l-1.252-1.259a.37.37 0 0 1 0-.522.366.366 0 0 1 .519 0l1 1 2.042-1.963a.365.365 0 0 1 .519.012.37.37 0 0 1-.012.521l-2.3 2.213a.364.364 0 0 1-.257.106zm11.528-1.106H16.64a.369.369 0 0 1 0-.738h6.025a.369.369 0 0 1 0 .738z" opacity="0.4"/>
</svg>
