<svg xmlns="http://www.w3.org/2000/svg" width="42.246" height="42.245" viewBox="0 0 42.246 42.245">
    <defs>
        <style>
            .prefix__cls-2{fill:#fff}
        </style>
    </defs>
    <g id="prefix__order_fulfilment" data-name="order fulfilment" opacity="0.4" transform="translate(-11.793 -11.8)">
        <path id="prefix__Path_555" d="M51.175 30.049a2.861 2.861 0 0 0-2.8 2.267h-3.839a11.579 11.579 0 0 0-3.017-7.216l2.72-2.715a2.846 2.846 0 1 0-.843-.865l-2.738 2.738a11.59 11.59 0 0 0-7.224-2.946v-3.834a2.862 2.862 0 1 0-1.211-.037v3.885a11.593 11.593 0 0 0-7.13 3.007l-2.718-2.718a2.862 2.862 0 1 0-.875.837l2.741 2.731a11.568 11.568 0 0 0-2.951 7.22h-3.816a2.9 2.9 0 0 0-2.819-2.354 2.862 2.862 0 1 0 0 5.725 2.809 2.809 0 0 0 2.774-2.16H21.3a11.525 11.525 0 0 0 2.994 7.125l-2.7 2.707a2.885 2.885 0 1 0 .843.875l2.716-2.721a11.591 11.591 0 0 0 7.157 2.96v3.821a2.863 2.863 0 1 0 1.211 0v-3.819a11.592 11.592 0 0 0 7.208-3l2.7 2.7a2.864 2.864 0 1 0 .864-.849l-2.715-2.725a11.549 11.549 0 0 0 2.954-7.161h3.845a2.862 2.862 0 1 0 2.794-3.478zM31.263 14.662a1.653 1.653 0 1 1 1.653 1.653 1.652 1.652 0 0 1-1.653-1.653zm1.653 28.7a10.426 10.426 0 1 1 10.425-10.421 10.426 10.426 0 0 1-10.426 10.426z" class="prefix__cls-2" data-name="Path 555"/>
        <path id="prefix__Path_556" d="M197.894 172.966l-2.18-1.259L190 175l2.18 1.259z" class="prefix__cls-2" data-name="Path 556" transform="translate(-162.798 -146.076)"/>
        <path id="prefix__Path_557" d="M234.923 194.345l-5.708 3.3 2.317 1.338 5.708-3.3z" class="prefix__cls-2" data-name="Path 557" transform="translate(-198.617 -166.756)"/>
        <path id="prefix__Path_558" d="M263 231.818l5.709-3.3v-6.588l-5.709 3.3z" class="prefix__cls-2" data-name="Path 558" transform="translate(-229.479 -191.955)"/>
        <path id="prefix__Path_559" d="M183 228.522l5.709 3.3v-6.592l-5.709-3.3z" class="prefix__cls-2" data-name="Path 559" transform="translate(-156.399 -191.955)"/>
    </g>
</svg>
