<svg xmlns="http://www.w3.org/2000/svg" width="40.339" height="33.294" viewBox="0 0 40.339 33.294">
    <defs>
        <style>
            .prefix__cls-1{fill:#fff}
        </style>
    </defs>
    <g id="prefix__payment-method" transform="translate(0 -.5)">
        <path id="prefix__Path_589" d="M305.022 167.937a2.838 2.838 0 1 0 0 5.525 3.863 3.863 0 0 1 0-5.525zm0 0" class="prefix__cls-1" data-name="Path 589" transform="translate(-275.546 -152.936)"/>
        <path id="prefix__Path_590" d="M342.812 176.533c0-1.263-.519-2.287-1.16-2.287s-1.16 1.024-1.16 2.287.52 2.287 1.16 2.287 1.16-1.02 1.16-2.287zm0 0" class="prefix__cls-1" data-name="Path 590" transform="translate(-311.144 -158.77)"/>
        <path id="prefix__Path_591" d="M9.913 176.572A9.913 9.913 0 1 0 0 166.659a9.913 9.913 0 0 0 9.913 9.913zm-5.077-10.943a.517.517 0 0 1 .729.057l2.52 2.951 6.242-5.078a.517.517 0 1 1 .653.8l-6.633 5.4a.517.517 0 0 1-.72-.065l-2.848-3.335a.517.517 0 0 1 .058-.729zm0 0" class="prefix__cls-1" data-name="Path 591" transform="translate(0 -142.779)"/>
        <path id="prefix__Path_592" d="M71.42.5H38.391A2.093 2.093 0 0 0 36.3 2.591V15.3a10.941 10.941 0 0 1 17.729 8.32H71.42a2.093 2.093 0 0 0 2.091-2.091V2.591A2.093 2.093 0 0 0 71.42.5zM39.186 4.195h13.8a.517.517 0 1 1 0 1.034h-13.8a.517.517 0 1 1 0-1.034zm.645 3.642h-.645a.517.517 0 1 1 0-1.034h.645a.517.517 0 0 1 0 1.034zm10.547 0h-8.617a.517.517 0 0 1 0-1.034h8.616a.517.517 0 0 1 0 1.034zm5.976 0h-4.1a.517.517 0 1 1 0-1.034h4.1a.517.517 0 1 1 0 1.034zm0-2.607H54.86a.517.517 0 1 1 0-1.034h1.494a.517.517 0 1 1 0 1.034zm9 16.406a3.847 3.847 0 0 1-1.677-.382 3.872 3.872 0 1 1 0-6.979 3.872 3.872 0 1 1 1.677 7.361zm0 0" class="prefix__cls-1" data-name="Path 592" transform="translate(-33.172)"/>
        <path id="prefix__Path_593" d="M366.571 167.856a2.831 2.831 0 0 0-.645.075 3.864 3.864 0 0 1 0 5.525 2.837 2.837 0 1 0 .645-5.6zm0 0" class="prefix__cls-1" data-name="Path 593" transform="translate(-334.385 -152.93)"/>
    </g>
</svg>
