<svg xmlns="http://www.w3.org/2000/svg" width="26.053" height="19.91" viewBox="0 0 26.053 19.91">
    <g id="prefix__screen" opacity="0.2">
        <g id="prefix__Group_66" data-name="Group 66">
            <g id="prefix__Group_65" data-name="Group 65">
                <path id="prefix__Path_303" d="M24.849 5.2H1.142A1.139 1.139 0 0 0 0 6.342v17.626a1.139 1.139 0 0 0 1.142 1.142h23.769a1.139 1.139 0 0 0 1.142-1.142V6.342A1.215 1.215 0 0 0 24.849 5.2zM1.05 6.342c.031-.031.062-.062.093-.062H24.88a.066.066 0 0 1 .062.062v12.07l-5.371-3.7a.561.561 0 0 0-.617 0l-4.723 3.21L8.89 12.67a.564.564 0 0 0-.741-.031L1.05 18.5zM11.112 25.11zM24.941 24c-.031 0-.062.031-.093.031H1.142a.066.066 0 0 1-.062-.062v-4.014l7.408-6.112 5.278 5.186a.56.56 0 0 0 .71.062l4.785-3.241 5.68 3.951V24z" data-name="Path 303" transform="translate(0 -5.2)"/>
            </g>
        </g>
        <g id="prefix__Group_68" data-name="Group 68" transform="translate(15.341 2.963)">
            <g id="prefix__Group_67" data-name="Group 67">
                <path id="prefix__Path_304" d="M201.331 43.6a2.531 2.531 0 1 0 2.531 2.531 2.543 2.543 0 0 0-2.531-2.531zm0 3.982a1.449 1.449 0 0 1-1.451-1.451 1.49 1.49 0 0 1 1.451-1.451 1.451 1.451 0 0 1 0 2.9z" data-name="Path 304" transform="translate(-198.8 -43.6)"/>
            </g>
        </g>
    </g>
</svg>
