<svg xmlns="http://www.w3.org/2000/svg" width="28" height="28" viewBox="0 0 28 28">
    <path id="prefix__settings_2_" fill="#fff" d="M27.041 11.308h-2.72a1.583 1.583 0 0 1-1.119-2.7l1.923-1.923a.959.959 0 0 0 0-1.356l-2.451-2.454a.959.959 0 0 0-1.356 0L19.394 4.8a1.583 1.583 0 0 1-2.7-1.119V.959A.959.959 0 0 0 15.733 0h-3.467a.959.959 0 0 0-.958.959v2.72A1.583 1.583 0 0 1 8.606 4.8L6.682 2.875a.959.959 0 0 0-1.356 0L2.875 5.326a.959.959 0 0 0 0 1.356L4.8 8.606a1.583 1.583 0 0 1-1.119 2.7H.959a.959.959 0 0 0-.959.961v3.467a.959.959 0 0 0 .959.958h2.72a1.583 1.583 0 0 1 1.119 2.7l-1.923 1.926a.959.959 0 0 0 0 1.356l2.452 2.452a.959.959 0 0 0 1.356 0L8.606 23.2a1.583 1.583 0 0 1 2.7 1.119v2.72a.959.959 0 0 0 .959.959h3.467a.959.959 0 0 0 .958-.959v-2.72a1.583 1.583 0 0 1 2.7-1.119l1.923 1.923a.959.959 0 0 0 1.356 0l2.452-2.452a.959.959 0 0 0 0-1.356L23.2 19.394a1.583 1.583 0 0 1 1.119-2.7h2.72a.959.959 0 0 0 .961-.961v-3.467a.959.959 0 0 0-.959-.958zm-13.041 7A4.308 4.308 0 1 1 18.308 14 4.308 4.308 0 0 1 14 18.308z" data-name="settings (2)" opacity="0.4"/>
</svg>
