<svg xmlns="http://www.w3.org/2000/svg" width="35.123" height="31.788" viewBox="0 0 35.123 31.788">
    <defs>
        <style>
            .prefix__cls-1{fill:#fff}.prefix__cls-2{fill:#121214}
        </style>
    </defs>
    <g id="prefix__shipping-and-delivery_4_" data-name="shipping-and-delivery (4)" transform="translate(0 -24.164)">
        <path id="prefix__Path_816" d="M22.934 190.214a.808.808 0 0 1-.808.808H.808a.808.808 0 0 1-.808-.808v-19.875a.808.808 0 0 1 .808-.808h21.318a.808.808 0 0 1 .808.808v19.874z" class="prefix__cls-1" data-name="Path 816" transform="translate(0 -135.07)"/>
        <path id="prefix__Path_817" d="M303.1 169.531a.8.8 0 0 1 .795.795v20.7h.835a.808.808 0 0 0 .808-.808v-19.879a.808.808 0 0 0-.808-.808h-1.63z" class="prefix__cls-1" data-name="Path 817" transform="translate(-282.599 -135.07)"/>
        <g id="prefix__Group_1542" data-name="Group 1542" transform="translate(15.049 46.628)">
            <path id="prefix__Path_818" d="M224.942 355.468a1.431 1.431 0 0 1-2.024-.027l-.367-.377a.046.046 0 0 1 0-.064l2.363-2.3a.046.046 0 0 0 0-.065l-2.363-2.3a.046.046 0 0 1 0-.065l.367-.377a1.432 1.432 0 0 1 2.024-.027l2.129 2.072a1.025 1.025 0 0 1 .253.381 1 1 0 0 1-.241 1.066z" class="prefix__cls-2" data-name="Path 818" transform="translate(-222.538 -349.458)"/>
        </g>
        <path id="prefix__Path_819" d="M144.982 173.3h-2.826a.473.473 0 0 1-.473-.473v-3.3h3.772v3.3a.473.473 0 0 1-.473.473z" class="prefix__cls-2" data-name="Path 819" transform="translate(-132.102 -135.071)"/>
        <path id="prefix__Path_820" d="M170.6 169.532v3.3a.473.473 0 0 1-.473.473h1.373a.473.473 0 0 0 .473-.473v-3.3z" class="prefix__cls-2" data-name="Path 820" transform="translate(-158.624 -135.071)"/>
        <g id="prefix__Group_1545" data-name="Group 1545" transform="translate(2.425 46.613)">
            <g id="prefix__Group_1543" data-name="Group 1543" transform="translate(1.491 .569)">
                <path id="prefix__Path_821" d="M58.437 362.23a.522.522 0 0 1-.522-.522v-3.535a.522.522 0 1 1 1.045 0v3.535a.522.522 0 0 1-.523.522z" class="prefix__cls-2" data-name="Path 821" transform="translate(-57.915 -357.65)"/>
            </g>
            <g id="prefix__Group_1544" data-name="Group 1544">
                <path id="prefix__Path_822" d="M36.385 351.749a.523.523 0 0 1-.367-.894l1.491-1.473a.522.522 0 0 1 .734 0l1.491 1.473a.522.522 0 1 1-.734.745l-1.124-1.11-1.124 1.11a.52.52 0 0 1-.367.149z" class="prefix__cls-2" data-name="Path 822" transform="translate(-35.863 -349.232)"/>
            </g>
        </g>
        <g id="prefix__Group_1548" data-name="Group 1548" transform="translate(7.203 46.613)">
            <g id="prefix__Group_1546" data-name="Group 1546" transform="translate(1.491 .569)">
                <path id="prefix__Path_823" d="M129.1 362.23a.522.522 0 0 1-.522-.522v-3.535a.522.522 0 1 1 1.045 0v3.535a.522.522 0 0 1-.523.522z" class="prefix__cls-2" data-name="Path 823" transform="translate(-128.573 -357.65)"/>
            </g>
            <g id="prefix__Group_1547" data-name="Group 1547">
                <path id="prefix__Path_824" d="M110.025 351.751a.521.521 0 0 1-.367-.151l-1.124-1.11-1.124 1.11a.522.522 0 0 1-.734-.743l1.491-1.473a.523.523 0 0 1 .734 0l1.491 1.473a.522.522 0 0 1-.367.894z" class="prefix__cls-2" data-name="Path 824" transform="translate(-106.521 -349.233)"/>
            </g>
        </g>
        <g id="prefix__Group_1549" data-name="Group 1549" transform="translate(16.344 24.665)">
            <path id="prefix__Path_825" fill="#fff" stroke="#121214" d="M241.852 27.693a.23.23 0 0 0-.156.218v1.427a15.521 15.521 0 0 0 7.76 13.442l1.264.73a.23.23 0 0 0 .23 0l1.264-.73a15.521 15.521 0 0 0 7.761-13.442v-1.427a.23.23 0 0 0-.156-.218l-8.909-3.016a.23.23 0 0 0-.148 0z" data-name="Path 825" transform="translate(-241.696 -24.665)"/>
            <path id="prefix__Path_827" d="M324.869 102.453a.412.412 0 0 1 .7 0l.983 1.611a.412.412 0 0 0 .256.186l1.836.437a.412.412 0 0 1 .217.669l-1.229 1.433a.412.412 0 0 0-.1.3l.151 1.882a.412.412 0 0 1-.569.413l-1.743-.725a.412.412 0 0 0-.317 0l-1.743.726a.412.412 0 0 1-.569-.413l.151-1.882a.412.412 0 0 0-.1-.3l-1.229-1.433a.412.412 0 0 1 .217-.669l1.836-.437a.412.412 0 0 0 .256-.186z" class="prefix__cls-2" data-name="Path 827" transform="translate(-316.081 -97.009)"/>
            <path id="prefix__Path_828" d="M346.419 135.744a.412.412 0 0 0-.217-.669l-.958-.228a12.344 12.344 0 0 1-4.892 3.921l-.048.592a.412.412 0 0 0 .569.413l1.743-.725a.412.412 0 0 1 .317 0l1.743.725a.412.412 0 0 0 .569-.413l-.151-1.882a.412.412 0 0 1 .1-.3z" class="prefix__cls-2" data-name="Path 828" transform="translate(-333.634 -127.396)"/>
        </g>
    </g>
</svg>
